<svg xmlns="http://www.w3.org/2000/svg" aria-hidden="true" style="position:absolute;width:0;height:0;overflow:hidden">
  <defs>
    <symbol id="icon-arrow" viewBox="0 0 56 32">
      <path d="M30.6 21.136c-0.664 0.668-1.584 1.081-2.6 1.081s-1.936-0.413-2.6-1.081l-0-0-16.8-16.832c-0.672-0.725-1.629-1.177-2.692-1.177-2.026 0-3.668 1.642-3.668 3.668 0 1.055 0.445 2.006 1.158 2.675l0.002 0.002 16.828 16.832c1.99 1.987 4.738 3.216 7.772 3.216s5.782-1.229 7.772-3.216l16.832-16.828c0.659-0.663 1.066-1.577 1.066-2.586 0-2.027-1.643-3.67-3.67-3.67-1.018 0-1.939 0.414-2.604 1.084l-0 0-16.792 16.828z"></path>
    </symbol>

    <symbol id="icon-close" viewBox="0 0 32 32">
      <path stroke-linejoin="round" stroke-linecap="round" stroke-miterlimit="4" stroke-width="2.2857" d="M24 8l-16 16"></path>
      <path stroke-linejoin="round" stroke-linecap="round" stroke-miterlimit="4" stroke-width="2.2857" d="M8 8l16 16"></path>
    </symbol>

    <symbol id="icon-check" viewBox="0 0 32 32">
      <path d="M12.636 31.213c1.395 0 2.449-0.536 3.163-1.607l15.448-23.28c0.257-0.379 0.446-0.753 0.569-1.121 0.123-0.379 0.184-0.742 0.184-1.088 0-0.96-0.335-1.752-1.004-2.377-0.658-0.636-1.473-0.954-2.444-0.954-0.669 0-1.238 0.134-1.707 0.402-0.457 0.257-0.893 0.703-1.305 1.339l-12.971 20.368-6.494-7.782c-0.703-0.815-1.584-1.222-2.644-1.222-0.993 0-1.813 0.318-2.46 0.954s-0.971 1.434-0.971 2.393c0 0.435 0.067 0.848 0.201 1.238 0.145 0.379 0.407 0.775 0.787 1.188l8.619 10.159c0.792 0.926 1.802 1.389 3.029 1.389z"></path>
    </symbol>
  </defs>
</svg>